# xmcd
#
# Track frame offsets:
#	150
#	18656
#	36271
#	51268
#	65762
#	78424
#	91645
#	106251
#	120977
#	139426
#
# Disc length: 2051 seconds
#
# Revision: 2
# Processed by: cddbd v1.5.1PL2 Copyright (c) Steve Scherf et al.
# Submitted via: audiograbber 1.83.01
#
DISCID=8308010a
DTITLE=James Daniel Devine - Honky Tonk Singer
DYEAR=2006
DGENRE=Country
TTITLE0=Free To Run
TTITLE1=Dancin' With A Long Neck Beer
TTITLE2=Woman In Waders
TTITLE3=Lovin' Only You
TTITLE4=A Little Bit Of You
TTITLE5=Church On Fridays
TTITLE6=We're In Trouble Now
TTITLE7=Every Time I Close My Eyes
TTITLE8=Honky Tonk Singer
TTITLE9=It's All Over But The Whiskey
EXTD=Produced by Steve Williams\nwww.mightybigmusic.com
EXTT0=Devine
EXTT1=Devine/Ward
EXTT2=Devine/Van Sickle/Stone
EXTT3=Devine/Ward
EXTT4=Devine/Zanghi
EXTT5=Devine/Williams
EXTT6=Devine/Ward
EXTT7=Devine/Williams
EXTT8=Devine
EXTT9=Devine/Nashan
PLAYORDER=
